# xmcd
#
# Track frame offsets:
#	150
#	14950
#	28751
#	44329
#	62629
#	76880
#	95182
#	109886
#	126278
#	142767
#	155860
#	171705
#	187657
#	203780
#	219005
#	249060
#
# Disc length: 3335 seconds
#
# Revision: 2
# Processed by: cddbd v1.5.2PL0 Copyright (c) Steve Scherf et al.
# Submitted via: audiograbber 1.83.01
#
DISCID=e00d0510
DTITLE=CB60342 - Chartbuster CB60342 Country Hits Sept 2005
DYEAR=2005
DGENRE=Karaoke
TTITLE0=George Strait - Texas
TTITLE1=Aaron Tippin - Come Friday
TTITLE2=Jessica Andrews - Summer Girl
TTITLE3=Chris Cagle - Miss Me Baby
TTITLE4=Jace Everett - That's The Kind Of Love I'm In
TTITLE5=Lauren Lucas - Carolina Kind, The
TTITLE6=Jeff Bates - Good People
TTITLE7=Brice Long - It's Only Monday
TTITLE8=Lisa Brokop - Big Picture
TTITLE9=Matt Jenkins - King Of The Castle
TTITLE10=Aaron Lines - It Takes A Man
TTITLE11=Terri Clark - She Didn't Have Time
TTITLE12=Billy Dean - Race You To The Bottom
TTITLE13=Tracy Lawrence - Used To The Pain
TTITLE14=Lila McCann - I Can Do This
TTITLE15=Blank - Blank
EXTD=Correcting track lists and artists - this is THE REAL CB60342
EXTT0=
EXTT1=
EXTT2=
EXTT3=
EXTT4=
EXTT5=
EXTT6=
EXTT7=
EXTT8=
EXTT9=
EXTT10=
EXTT11=
EXTT12=
EXTT13=
EXTT14=
EXTT15=
PLAYORDER=
